<?xml version="1.0" encoding="utf-8"?>
<!-- Generator: Adobe Illustrator 23.0.0, SVG Export Plug-In . SVG Version: 6.00 Build 0)  -->
<svg version="1.1" id="Capa_1" xmlns="http://www.w3.org/2000/svg" xmlns:xlink="http://www.w3.org/1999/xlink" x="0px" y="0px"
	 width="36px" height="36px" viewBox="0 0 36 36" style="enable-background:new 0 0 36 36;" xml:space="preserve">
<g>
	<path id="SVGID_17_" d="M8.7,19.2c-0.3,0-0.8,0-1.2,0c0-0.4,0-0.9,0-1.2c0-0.2,0-0.7,0-1.2h1.2c0.7,0,1.3,0.6,1.3,1.2
		C9.9,18.7,9.4,19.2,8.7,19.2z M8.7,14.7H6.3c-0.3,0-0.6,0.1-0.8,0.3c-0.2,0.2-0.3,0.5-0.3,0.7l0,8c0,0.6,0.5,1.1,1.1,1.1
		s1.1-0.5,1.1-1.1v-2.4c0.4,0,0.9,0,1.2,0c1.9,0,3.5-1.5,3.5-3.3S10.6,14.7,8.7,14.7z"/>
	<path id="SVGID_21_" d="M18,22.5c-0.3,0-0.8,0-1.2,0c0-0.9,0-4.7,0-5.7H18c2,0,2.2,2.2,2.2,2.8C20.1,21,19.5,22.4,18,22.5z
		 M18,14.7h-2.3c-0.3,0-0.6,0.1-0.8,0.3s-0.3,0.5-0.3,0.7c0,0,0,7.8,0,7.8c0,0.3,0.1,0.5,0.3,0.7c0.2,0.2,0.5,0.3,0.8,0.3h0
		c0.1,0,1.7,0,2.3,0c2.5,0,4.3-2.1,4.3-4.9C22.3,16.7,20.6,14.7,18,14.7z"/>
	<path id="SVGID_25_" d="M29.5,16.7c0.6,0,1.1-0.5,1.1-1.1c0-0.6-0.5-1.1-1.1-1.1h-3.3c-0.6,0-1.1,0.5-1.1,1.1v8
		c0,0.6,0.5,1.1,1.1,1.1s1.1-0.5,1.1-1.1v-3h2c0.6,0,1.1-0.5,1.1-1.1c0-0.6-0.5-1.1-1.1-1.1h-2v-1.8H29.5z"/>
	<path id="SVGID_29_" d="M33.8,26c0,0.6-0.5,1.1-1.1,1.1H3.3c-0.6,0-1.1-0.5-1.1-1.1V13.4c0-0.6,0.5-1.1,1.1-1.1h29.4
		c0.6,0,1.1,0.5,1.1,1.1V26z M29.7,32.8c0,0.6-0.5,1.1-1.1,1.1H7.4c-0.6,0-1.1-0.5-1.1-1.1v-3.7h23.5V32.8z M6.3,3.2
		c0-0.6,0.5-1.1,1.1-1.1h14.6c0.9,0,1.8,0.4,2.4,1l4.5,4.6c0.6,0.6,0.9,1.4,0.9,2.2v0.3H6.3V3.2z M32.7,10.2h-0.8V9.9
		c0-1.4-0.5-2.6-1.5-3.6l-4.5-4.6c-1-1-2.5-1.6-4-1.6H7.4C5.6,0,4.1,1.4,4.1,3.2v7H3.3c-1.8,0-3.3,1.4-3.3,3.2V26
		c0,1.7,1.5,3.2,3.3,3.2h0.8v3.7c0,1.7,1.5,3.2,3.3,3.2h21.3c1.8,0,3.3-1.4,3.3-3.2v-3.7h0.8c1.8,0,3.3-1.4,3.3-3.2V13.4
		C36,11.6,34.5,10.2,32.7,10.2z"/>
</g>
</svg>
