<?xml version="1.0" encoding="utf-8"?>
<!-- Generator: Adobe Illustrator 23.0.0, SVG Export Plug-In . SVG Version: 6.00 Build 0)  -->
<svg version="1.1" id="Capa_2" xmlns="http://www.w3.org/2000/svg" xmlns:xlink="http://www.w3.org/1999/xlink" x="0px" y="0px"
	 width="103.7px" height="103.7px" viewBox="0 0 103.7 103.7" style="enable-background:new 0 0 103.7 103.7;" xml:space="preserve"
	>
<style type="text/css">
	.st0{clip-path:url(#SVGID_1_);}
	.st1{clip-path:url(#SVGID_2_);fill:#0C9E4C;}
	.st2{clip-path:url(#SVGID_3_);}
	.st3{clip-path:url(#SVGID_4_);fill:#009A44;}
	.st4{clip-path:url(#SVGID_5_);}
	.st5{clip-path:url(#SVGID_6_);fill:#009A44;}
	.st6{clip-path:url(#SVGID_7_);}
	.st7{clip-path:url(#SVGID_8_);fill:#009A44;}
	.st8{clip-path:url(#SVGID_9_);}
	.st9{clip-path:url(#SVGID_10_);fill:#E0269B;}
	.st10{clip-path:url(#SVGID_11_);}
	.st11{clip-path:url(#SVGID_12_);fill:#E0269B;}
	.st12{clip-path:url(#SVGID_13_);}
	.st13{clip-path:url(#SVGID_14_);fill:#E0269B;}
	.st14{clip-path:url(#SVGID_15_);}
	.st15{clip-path:url(#SVGID_16_);fill:#E85CB4;}
	.st16{clip-path:url(#SVGID_17_);}
	.st17{clip-path:url(#SVGID_18_);fill:#E85CB4;}
	.st18{clip-path:url(#SVGID_19_);}
	.st19{clip-path:url(#SVGID_20_);fill:#E0269B;}
	.st20{clip-path:url(#SVGID_21_);}
	.st21{clip-path:url(#SVGID_22_);fill:#E0269B;}
	.st22{clip-path:url(#SVGID_23_);}
	.st23{clip-path:url(#SVGID_24_);fill:#E0269B;}
	.st24{clip-path:url(#SVGID_25_);}
	.st25{clip-path:url(#SVGID_26_);fill:#E0269B;}
	.st26{clip-path:url(#SVGID_27_);}
	.st27{clip-path:url(#SVGID_28_);fill:#4AB77A;}
	.st28{clip-path:url(#SVGID_29_);}
	.st29{clip-path:url(#SVGID_30_);fill:#009A44;}
	.st30{clip-path:url(#SVGID_31_);}
	.st31{clip-path:url(#SVGID_32_);fill:#E0269B;}
	.st32{clip-path:url(#SVGID_33_);}
	.st33{clip-path:url(#SVGID_34_);fill:#0C9E4C;}
	.st34{clip-path:url(#SVGID_35_);}
	.st35{clip-path:url(#SVGID_36_);fill:#009A44;}
	.st36{clip-path:url(#SVGID_37_);}
	.st37{clip-path:url(#SVGID_38_);fill:#009A44;}
</style>
<g>
	<defs>
		<path id="SVGID_77_" d="M91.4,68.2c1,0,1.7,0.8,1.7,1.7c0,1-0.8,1.7-1.7,1.7h-1.7v-3.4H91.4z"/>
	</defs>
	<clipPath id="SVGID_1_">
		<use xlink:href="#SVGID_77_"  style="overflow:visible;"/>
	</clipPath>
	<g class="st0">
		<defs>
			<rect id="SVGID_79_" x="-970.8" y="-827.9" width="2800" height="1678"/>
		</defs>
		<clipPath id="SVGID_2_">
			<use xlink:href="#SVGID_79_"  style="overflow:visible;"/>
		</clipPath>
		<rect x="79.7" y="58.2" class="st1" width="23.4" height="23.4"/>
	</g>
</g>
<g>
	<defs>
		<rect id="SVGID_81_" x="14.6" y="68.2" width="75.2" height="3.4"/>
	</defs>
	<clipPath id="SVGID_3_">
		<use xlink:href="#SVGID_81_"  style="overflow:visible;"/>
	</clipPath>
	<g class="st2">
		<defs>
			<rect id="SVGID_83_" x="-970.8" y="-827.9" width="2800" height="1678"/>
		</defs>
		<clipPath id="SVGID_4_">
			<use xlink:href="#SVGID_83_"  style="overflow:visible;"/>
		</clipPath>
		<rect x="4.6" y="58.2" class="st3" width="95.2" height="23.4"/>
	</g>
</g>
<g>
	<defs>
		<path id="SVGID_85_" d="M93.2,28.9v41c0-1-0.8-1.7-1.7-1.7h-1.7V28.9c0-1-0.8-1.7-1.7-1.7H67.8c-1,0-1.7-0.8-1.7-1.7
			s0.8-1.7,1.7-1.7H88C90.9,23.8,93.2,26.1,93.2,28.9z"/>
	</defs>
	<clipPath id="SVGID_5_">
		<use xlink:href="#SVGID_85_"  style="overflow:visible;"/>
	</clipPath>
	<g class="st4">
		<defs>
			<rect id="SVGID_87_" x="-970.8" y="-827.9" width="2800" height="1678"/>
		</defs>
		<clipPath id="SVGID_6_">
			<use xlink:href="#SVGID_87_"  style="overflow:visible;"/>
		</clipPath>
		<rect x="56.1" y="13.8" class="st5" width="47.1" height="66.1"/>
	</g>
</g>
<g>
	<defs>
		<path id="SVGID_89_" d="M88,81.9H61c-0.2-1-0.3-1.6-0.3-1.7c0-1-0.8-1.7-1.7-1.7h29c1,0,1.7-0.8,1.7-1.7v-5.1h1.7
			c1,0,1.7-0.8,1.7-1.7v6.8C93.2,79.6,90.9,81.9,88,81.9z"/>
	</defs>
	<clipPath id="SVGID_7_">
		<use xlink:href="#SVGID_89_"  style="overflow:visible;"/>
	</clipPath>
	<g class="st6">
		<defs>
			<rect id="SVGID_91_" x="-970.8" y="-827.9" width="2800" height="1678"/>
		</defs>
		<clipPath id="SVGID_8_">
			<use xlink:href="#SVGID_91_"  style="overflow:visible;"/>
		</clipPath>
		<rect x="49" y="59.9" class="st7" width="54.2" height="32"/>
	</g>
</g>
<g>
	<defs>
		<path id="SVGID_93_" d="M59,17v1.7c0,1-0.8,1.7-1.7,1.7s-1.7-0.8-1.7-1.7V17H59z"/>
	</defs>
	<clipPath id="SVGID_9_">
		<use xlink:href="#SVGID_93_"  style="overflow:visible;"/>
	</clipPath>
	<g class="st8">
		<defs>
			<rect id="SVGID_95_" x="-970.8" y="-827.9" width="2800" height="1678"/>
		</defs>
		<clipPath id="SVGID_10_">
			<use xlink:href="#SVGID_95_"  style="overflow:visible;"/>
		</clipPath>
		<rect x="45.6" y="7" class="st9" width="23.4" height="23.4"/>
	</g>
</g>
<g>
	<defs>
		<rect id="SVGID_97_" x="55.6" y="13.5" width="3.4" height="3.4"/>
	</defs>
	<clipPath id="SVGID_11_">
		<use xlink:href="#SVGID_97_"  style="overflow:visible;"/>
	</clipPath>
	<g class="st10">
		<defs>
			<rect id="SVGID_99_" x="-970.8" y="-827.9" width="2800" height="1678"/>
		</defs>
		<clipPath id="SVGID_12_">
			<use xlink:href="#SVGID_99_"  style="overflow:visible;"/>
		</clipPath>
		<rect x="45.6" y="3.5" class="st11" width="23.4" height="23.4"/>
	</g>
</g>
<g>
	<defs>
		<path id="SVGID_101_" d="M55.6,11.8c0-1,0.8-1.7,1.7-1.7s1.7,0.8,1.7,1.7v1.7h-3.4V11.8z"/>
	</defs>
	<clipPath id="SVGID_13_">
		<use xlink:href="#SVGID_101_"  style="overflow:visible;"/>
	</clipPath>
	<g class="st12">
		<defs>
			<rect id="SVGID_103_" x="-970.8" y="-827.9" width="2800" height="1678"/>
		</defs>
		<clipPath id="SVGID_14_">
			<use xlink:href="#SVGID_103_"  style="overflow:visible;"/>
		</clipPath>
		<rect x="45.6" y="0.1" class="st13" width="23.4" height="23.4"/>
	</g>
</g>
<g>
	<defs>
		<path id="SVGID_105_" d="M57.3,27.2c1,0,1.7,0.8,1.7,1.7c0,1-0.8,1.7-1.7,1.7H47c-1,0-1.7-0.8-1.7-1.7c0-1,0.8-1.7,1.7-1.7H57.3z"
			/>
	</defs>
	<clipPath id="SVGID_15_">
		<use xlink:href="#SVGID_105_"  style="overflow:visible;"/>
	</clipPath>
	<g class="st14">
		<defs>
			<rect id="SVGID_107_" x="-970.8" y="-827.9" width="2800" height="1678"/>
		</defs>
		<clipPath id="SVGID_16_">
			<use xlink:href="#SVGID_107_"  style="overflow:visible;"/>
		</clipPath>
		<rect x="35.3" y="17.2" class="st15" width="33.7" height="23.4"/>
	</g>
</g>
<g>
	<defs>
		<path id="SVGID_109_" d="M57.3,37.5c1,0,1.7,0.8,1.7,1.7c0,1-0.8,1.7-1.7,1.7H47c-1,0-1.7-0.8-1.7-1.7c0-1,0.8-1.7,1.7-1.7H57.3z"
			/>
	</defs>
	<clipPath id="SVGID_17_">
		<use xlink:href="#SVGID_109_"  style="overflow:visible;"/>
	</clipPath>
	<g class="st16">
		<defs>
			<rect id="SVGID_111_" x="-970.8" y="-827.9" width="2800" height="1678"/>
		</defs>
		<clipPath id="SVGID_18_">
			<use xlink:href="#SVGID_111_"  style="overflow:visible;"/>
		</clipPath>
		<rect x="35.3" y="27.5" class="st17" width="33.7" height="23.4"/>
	</g>
</g>
<g>
	<defs>
		<rect id="SVGID_113_" x="48.7" y="13.5" width="6.8" height="3.4"/>
	</defs>
	<clipPath id="SVGID_19_">
		<use xlink:href="#SVGID_113_"  style="overflow:visible;"/>
	</clipPath>
	<g class="st18">
		<defs>
			<rect id="SVGID_115_" x="-970.8" y="-827.9" width="2800" height="1678"/>
		</defs>
		<clipPath id="SVGID_20_">
			<use xlink:href="#SVGID_115_"  style="overflow:visible;"/>
		</clipPath>
		<rect x="38.7" y="3.5" class="st19" width="26.8" height="23.4"/>
	</g>
</g>
<g>
	<defs>
		<rect id="SVGID_117_" x="45.3" y="13.5" width="3.4" height="3.4"/>
	</defs>
	<clipPath id="SVGID_21_">
		<use xlink:href="#SVGID_117_"  style="overflow:visible;"/>
	</clipPath>
	<g class="st20">
		<defs>
			<rect id="SVGID_119_" x="-970.8" y="-827.9" width="2800" height="1678"/>
		</defs>
		<clipPath id="SVGID_22_">
			<use xlink:href="#SVGID_119_"  style="overflow:visible;"/>
		</clipPath>
		<rect x="35.3" y="3.5" class="st21" width="23.4" height="23.4"/>
	</g>
</g>
<g>
	<defs>
		<path id="SVGID_121_" d="M48.7,11.8v1.7h-3.4v-1.7c0-1,0.8-1.7,1.7-1.7S48.7,10.9,48.7,11.8z"/>
	</defs>
	<clipPath id="SVGID_23_">
		<use xlink:href="#SVGID_121_"  style="overflow:visible;"/>
	</clipPath>
	<g class="st22">
		<defs>
			<rect id="SVGID_123_" x="-970.8" y="-827.9" width="2800" height="1678"/>
		</defs>
		<clipPath id="SVGID_24_">
			<use xlink:href="#SVGID_123_"  style="overflow:visible;"/>
		</clipPath>
		<rect x="35.3" y="0.1" class="st23" width="23.4" height="23.4"/>
	</g>
</g>
<g>
	<defs>
		<path id="SVGID_125_" d="M48.7,18.7c0,1-0.8,1.7-1.7,1.7s-1.7-0.8-1.7-1.7V17h3.4V18.7z"/>
	</defs>
	<clipPath id="SVGID_25_">
		<use xlink:href="#SVGID_125_"  style="overflow:visible;"/>
	</clipPath>
	<g class="st24">
		<defs>
			<rect id="SVGID_127_" x="-970.8" y="-827.9" width="2800" height="1678"/>
		</defs>
		<clipPath id="SVGID_26_">
			<use xlink:href="#SVGID_127_"  style="overflow:visible;"/>
		</clipPath>
		<rect x="35.3" y="7" class="st25" width="23.4" height="23.4"/>
	</g>
</g>
<g>
	<defs>
		<path id="SVGID_129_" d="M45.2,78.5H59c0.9,0,1.7,0.8,1.7,1.7c0,0.1,0,0.7,0.3,1.7h-3.5H46.8h-3.5c0.2-1,0.2-1.6,0.2-1.7
			C43.5,79.2,44.3,78.5,45.2,78.5z"/>
	</defs>
	<clipPath id="SVGID_27_">
		<use xlink:href="#SVGID_129_"  style="overflow:visible;"/>
	</clipPath>
	<g class="st26">
		<defs>
			<rect id="SVGID_131_" x="-970.8" y="-827.9" width="2800" height="1678"/>
		</defs>
		<clipPath id="SVGID_28_">
			<use xlink:href="#SVGID_131_"  style="overflow:visible;"/>
		</clipPath>
		<rect x="33.3" y="68.5" class="st27" width="37.7" height="23.4"/>
	</g>
</g>
<g>
	<defs>
		<path id="SVGID_133_" d="M39,89.2c2.8-2.8,3.9-5.6,4.3-7.3h3.5c-0.3,1.6-1,4.1-2.9,6.8h16.6c-1.9-2.7-2.7-5.3-3-6.8H61
			c0.4,1.7,1.5,4.5,4.3,7.3c0.5,0.5,0.6,1.2,0.4,1.8c-0.2,0.6-0.9,1.1-1.6,1.1H40.2c-0.7,0-1.3-0.4-1.6-1.1
			C38.3,90.4,38.5,89.7,39,89.2z"/>
	</defs>
	<clipPath id="SVGID_29_">
		<use xlink:href="#SVGID_133_"  style="overflow:visible;"/>
	</clipPath>
	<g class="st28">
		<defs>
			<rect id="SVGID_135_" x="-970.8" y="-827.9" width="2800" height="1678"/>
		</defs>
		<clipPath id="SVGID_30_">
			<use xlink:href="#SVGID_135_"  style="overflow:visible;"/>
		</clipPath>
		<rect x="28.5" y="71.9" class="st29" width="47.3" height="30.3"/>
	</g>
</g>
<g>
	<defs>
		<path id="SVGID_137_" d="M40.2,47.7h23.9c1,0,1.7-0.8,1.7-1.7V18.7c0-1-0.8-1.7-1.7-1.7H59v-3.4h5.1c2.8,0,5.1,2.3,5.1,5.1v6.8V46
			c0,2.8-2.3,5.1-5.1,5.1H40.2c-2.8,0-5.1-2.3-5.1-5.1V25.5v-6.8c0-2.8,2.3-5.1,5.1-5.1h5.1V17h-5.1c-1,0-1.7,0.8-1.7,1.7V46
			C38.5,46.9,39.2,47.7,40.2,47.7z"/>
	</defs>
	<clipPath id="SVGID_31_">
		<use xlink:href="#SVGID_137_"  style="overflow:visible;"/>
	</clipPath>
	<g class="st30">
		<defs>
			<rect id="SVGID_139_" x="-970.8" y="-827.9" width="2800" height="1678"/>
		</defs>
		<clipPath id="SVGID_32_">
			<use xlink:href="#SVGID_139_"  style="overflow:visible;"/>
		</clipPath>
		<rect x="25.1" y="3.5" class="st31" width="54.2" height="57.6"/>
	</g>
</g>
<g>
	<defs>
		<path id="SVGID_141_" d="M14.6,68.2v3.4h-1.7c-1,0-1.7-0.8-1.7-1.7c0-1,0.8-1.7,1.7-1.7H14.6z"/>
	</defs>
	<clipPath id="SVGID_33_">
		<use xlink:href="#SVGID_141_"  style="overflow:visible;"/>
	</clipPath>
	<g class="st32">
		<defs>
			<rect id="SVGID_143_" x="-970.8" y="-827.9" width="2800" height="1678"/>
		</defs>
		<clipPath id="SVGID_34_">
			<use xlink:href="#SVGID_143_"  style="overflow:visible;"/>
		</clipPath>
		<rect x="1.2" y="58.2" class="st33" width="23.4" height="23.4"/>
	</g>
</g>
<g>
	<defs>
		<path id="SVGID_145_" d="M16.3,27.2c-1,0-1.7,0.8-1.7,1.7v39.3h-1.7c-1,0-1.7,0.8-1.7,1.7v-41c0-2.8,2.3-5.1,5.1-5.1h18.3
			c1,0,1.7,0.8,1.7,1.7s-0.8,1.7-1.7,1.7H16.3z"/>
	</defs>
	<clipPath id="SVGID_35_">
		<use xlink:href="#SVGID_145_"  style="overflow:visible;"/>
	</clipPath>
	<g class="st34">
		<defs>
			<rect id="SVGID_147_" x="-970.8" y="-827.9" width="2800" height="1678"/>
		</defs>
		<clipPath id="SVGID_36_">
			<use xlink:href="#SVGID_147_"  style="overflow:visible;"/>
		</clipPath>
		<rect x="1.2" y="13.8" class="st35" width="45.1" height="66.1"/>
	</g>
</g>
<g>
	<defs>
		<path id="SVGID_149_" d="M16.3,78.5h29c-1,0-1.7,0.8-1.7,1.7c0,0.1,0,0.7-0.2,1.7h-27c-2.8,0-5.1-2.3-5.1-5.1v-6.8
			c0,1,0.8,1.7,1.7,1.7h1.7v5.1C14.6,77.7,15.3,78.5,16.3,78.5z"/>
	</defs>
	<clipPath id="SVGID_37_">
		<use xlink:href="#SVGID_149_"  style="overflow:visible;"/>
	</clipPath>
	<g class="st36">
		<defs>
			<rect id="SVGID_151_" x="-970.8" y="-827.9" width="2800" height="1678"/>
		</defs>
		<clipPath id="SVGID_38_">
			<use xlink:href="#SVGID_151_"  style="overflow:visible;"/>
		</clipPath>
		<rect x="1.2" y="59.9" class="st37" width="54.1" height="32"/>
	</g>
</g>
</svg>
