<?xml version="1.0" encoding="utf-8"?>
<!-- Generator: Adobe Illustrator 23.0.0, SVG Export Plug-In . SVG Version: 6.00 Build 0)  -->
<svg version="1.1" id="Capa_1" xmlns="http://www.w3.org/2000/svg" xmlns:xlink="http://www.w3.org/1999/xlink" x="0px" y="0px"
	 width="36px" height="36px" viewBox="0 0 36 36" style="enable-background:new 0 0 36 36;" xml:space="preserve">
<g>
	<path d="M31.6,19.3c-0.8,0-1.4,0.6-1.4,1.4v5.8c0,2.1-1.7,3.8-3.8,3.8H9.5c-2.1,0-3.8-1.7-3.8-3.8v-5.8c0-0.8-0.6-1.4-1.4-1.4
		S3,19.9,3,20.6v5.8C3,30.1,5.9,33,9.5,33h16.9c3.6,0,6.5-2.9,6.5-6.6v-5.8C33,19.9,32.4,19.3,31.6,19.3z"/>
	<path d="M10.3,13.8l5.8-6v17.6c0,0.8,0.6,1.4,1.3,1.4s1.3-0.6,1.3-1.4V7.8l5.8,6c0.5,0.5,1.4,0.5,1.9,0c0.5-0.5,0.5-1.4,0-2l-8-8.4
		c-0.5-0.5-1.4-0.5-1.9,0l-8,8.4c-0.5,0.5-0.5,1.4,0,2C8.9,14.3,9.7,14.3,10.3,13.8z"/>
</g>
</svg>
