<?xml version="1.0" encoding="utf-8"?>
<!-- Generator: Adobe Illustrator 23.0.0, SVG Export Plug-In . SVG Version: 6.00 Build 0)  -->
<svg version="1.1" id="Capa_1" xmlns="http://www.w3.org/2000/svg" xmlns:xlink="http://www.w3.org/1999/xlink" x="0px" y="0px"
	 width="64px" height="64px" viewBox="0 0 64 64" style="enable-background:new 0 0 64 64;" xml:space="preserve">
<style type="text/css">
	.st0{clip-path:url(#SVGID_1_);}
	.st1{clip-path:url(#SVGID_2_);fill:#F68C49;}
	.st2{clip-path:url(#SVGID_3_);}
	.st3{clip-path:url(#SVGID_4_);fill:#F68C49;}
	.st4{fill-rule:evenodd;clip-rule:evenodd;fill:#F68C49;}
</style>
<g>
	<g>
		<defs>
			<path id="SVGID_9_" d="M32,38.8c-1.3,0-2-0.6-2-1V24.6c0-0.5,0.8-0.9,2-0.9c1.2,0,2,0.5,2,0.9v13.3C34,38.2,33.2,38.8,32,38.8"/>
		</defs>
		<use xlink:href="#SVGID_9_"  style="overflow:visible;fill-rule:evenodd;clip-rule:evenodd;fill:#F68C49;"/>
		<clipPath id="SVGID_1_">
			<use xlink:href="#SVGID_9_"  style="overflow:visible;"/>
		</clipPath>
		<g class="st0">
			<defs>
				<rect id="SVGID_11_" x="-481.3" y="-439.9" width="2696.3" height="3010.2"/>
			</defs>
			<use xlink:href="#SVGID_11_"  style="overflow:visible;fill:#F68C49;"/>
			<clipPath id="SVGID_2_">
				<use xlink:href="#SVGID_11_"  style="overflow:visible;"/>
			</clipPath>
			<rect x="20.4" y="14.1" class="st1" width="23.2" height="34.4"/>
		</g>
	</g>
	<g>
		<defs>
			<path id="SVGID_13_" d="M32,19c-1.2,0-2.3-1-2.3-2.3c0-1.2,1-2.2,2.3-2.2c1.2,0,2.2,1,2.2,2.2C34.2,18,33.2,19,32,19"/>
		</defs>
		<use xlink:href="#SVGID_13_"  style="overflow:visible;fill-rule:evenodd;clip-rule:evenodd;fill:#F68C49;"/>
		<clipPath id="SVGID_3_">
			<use xlink:href="#SVGID_13_"  style="overflow:visible;"/>
		</clipPath>
		<g class="st2">
			<defs>
				<rect id="SVGID_15_" x="-481.3" y="-439.9" width="2696.3" height="3010.2"/>
			</defs>
			<use xlink:href="#SVGID_15_"  style="overflow:visible;fill:#F68C49;"/>
			<clipPath id="SVGID_4_">
				<use xlink:href="#SVGID_15_"  style="overflow:visible;"/>
			</clipPath>
			<rect x="20.1" y="4.9" class="st3" width="23.7" height="23.8"/>
		</g>
	</g>
	<path class="st4" d="M24.1,52.7l0.2,0.1l6.2,9.3c0.3,0.5,0.9,0.8,1.4,0.8s1.1-0.3,1.4-0.8l6.2-9.3l0.2-0.1c5.1-1.7,9.7-5,13-9.4
		c3.4-4.6,5.2-10,5.2-15.8c0-7.1-2.7-13.7-7.6-18.7c-4.9-5-11.4-7.7-18.4-7.7c-7,0-13.5,2.7-18.4,7.7C8.7,13.9,6,20.5,6,27.6
		c0,5.7,1.8,11.2,5.2,15.8C14.4,47.7,19,51,24.1,52.7z M32,4.7c12.4,0,22.5,10.2,22.5,22.8c0,5.1-1.6,9.9-4.7,14
		c-3,3.9-7.1,6.7-11.7,8c-0.4,0.1-0.7,0.4-1,0.7L32,57.9l-5.1-7.7c-0.2-0.3-0.6-0.6-1-0.7c-4.6-1.3-8.8-4.2-11.7-8
		c-3.1-4-4.7-8.9-4.7-14C9.5,15,19.6,4.7,32,4.7z"/>
</g>
</svg>
