<?xml version="1.0" encoding="utf-8"?>
<!-- Generator: Adobe Illustrator 23.0.0, SVG Export Plug-In . SVG Version: 6.00 Build 0)  -->
<svg version="1.1" id="Capa_1" xmlns="http://www.w3.org/2000/svg" xmlns:xlink="http://www.w3.org/1999/xlink" x="0px" y="0px"
	 width="36px" height="36px" viewBox="0 0 36 36" style="enable-background:new 0 0 36 36;" xml:space="preserve">
<path d="M7.3,13.6c0,1.3-1.1,2.4-2.4,2.4c-1.3,0-2.4-1.1-2.4-2.4c0-1.3,1.1-2.4,2.4-2.4C6.2,11.3,7.3,12.3,7.3,13.6z M4.9,3.6
	c-0.7,0-1.3,0.6-1.3,1.3v4C1.5,9.5,0,11.4,0,13.6c0,2.2,1.5,4.2,3.6,4.7v12.7c0,0.7,0.6,1.3,1.3,1.3c0.7,0,1.3-0.6,1.3-1.3V18.3
	c2.1-0.6,3.6-2.5,3.6-4.7S8.3,9.4,6.2,8.9v-4C6.2,4.2,5.6,3.6,4.9,3.6z"/>
<path d="M20.4,27.4c0,1-0.6,1.8-1.4,2.2C18,30,17,29.8,16.3,29.1c-0.7-0.7-0.9-1.7-0.5-2.6c0.4-0.9,1.2-1.5,2.2-1.5
	C19.3,25.1,20.3,26.1,20.4,27.4z M18,3.6c-0.7,0-1.3,0.6-1.3,1.3v17.8c-2.4,0.6-3.9,3-3.6,5.4s2.4,4.3,4.9,4.3s4.6-1.8,4.9-4.3
	s-1.2-4.8-3.6-5.4V4.9C19.3,4.2,18.7,3.6,18,3.6z"/>
<path d="M31.1,20.3c-1,0-1.8-0.6-2.2-1.4c-0.4-0.9-0.2-1.9,0.5-2.6s1.7-0.9,2.6-0.5c0.9,0.4,1.5,1.2,1.5,2.2
	C33.4,19.3,32.4,20.3,31.1,20.3z M32.4,13.2V4.9c0-0.7-0.6-1.3-1.3-1.3c-0.7,0-1.3,0.6-1.3,1.3v8.4c-2.1,0.6-3.6,2.5-3.6,4.7
	c0,2.2,1.5,4.2,3.6,4.7v8.4c0,0.7,0.6,1.3,1.3,1.3c0.7,0,1.3-0.6,1.3-1.3v-8.4c2.1-0.6,3.6-2.5,3.6-4.7C36,15.8,34.5,13.8,32.4,13.2
	z"/>
</svg>
