<?xml version="1.0" encoding="utf-8"?>
<!-- Generator: Adobe Illustrator 23.0.0, SVG Export Plug-In . SVG Version: 6.00 Build 0)  -->
<svg version="1.1" id="Capa_1" xmlns="http://www.w3.org/2000/svg" xmlns:xlink="http://www.w3.org/1999/xlink" x="0px" y="0px"
	 width="100px" height="100px" viewBox="0 0 100 100" style="enable-background:new 0 0 100 100;" xml:space="preserve">
<style type="text/css">
	.st0{fill:#009A44;}
	.st1{fill-rule:evenodd;clip-rule:evenodd;fill:#E0269B;}
</style>
<g>
	<path class="st0" d="M50,92.9C26.4,92.9,7.1,73.6,7.1,50S26.4,7.1,50,7.1S92.9,26.4,92.9,50S73.6,92.9,50,92.9z M50,1
		C23,1,1,23,1,50s22,49,49,49s49-22,49-49S77,1,50,1z"/>
	<path class="st1" d="M73.2,34.1c1.2,1.2,1.2,3.1,0,4.3L45.7,65.9c-0.6,0.6-1.4,0.9-2.2,0.9c-0.8,0-1.6-0.3-2.2-0.9L26.8,51.3
		c-1.2-1.2-1.2-3.1,0-4.3c1.2-1.2,3.1-1.2,4.3,0l12.4,12.4l25.3-25.3C70,32.9,72,32.9,73.2,34.1z"/>
</g>
</svg>
