<?xml version="1.0" encoding="utf-8"?>
<!-- Generator: Adobe Illustrator 23.0.0, SVG Export Plug-In . SVG Version: 6.00 Build 0)  -->
<svg version="1.1" id="Capa_1" xmlns="http://www.w3.org/2000/svg" xmlns:xlink="http://www.w3.org/1999/xlink" x="0px" y="0px"
	 width="36px" height="36px" viewBox="0 0 36 36" style="enable-background:new 0 0 36 36;" xml:space="preserve">
<path id="SVGID_9_" d="M28.7,28.7c-2.8,2.8-6.6,4.4-10.7,4.4s-7.8-1.6-10.7-4.4c-5.9-5.9-5.9-15.4,0-21.3C10.2,4.5,14,2.9,18,2.9
	s7.8,1.6,10.7,4.4C34.5,13.2,34.5,22.8,28.7,28.7z M30,6c-3.2-3.2-7.5-5-12-5S9.2,2.8,6,6c-3.2,3.2-5,7.5-5,12s1.8,8.8,5,12
	c3.2,3.2,7.5,5,12,5s8.8-1.8,12-5c3.2-3.2,5-7.5,5-12S33.2,9.2,30,6z"/>
<path id="SVGID_13_" d="M25.5,10.5c-0.4-0.4-1-0.4-1.4,0L18,16.6l-6.1-6.1c-0.4-0.4-1-0.4-1.4,0c-0.4,0.4-0.4,1,0,1.4l6.1,6.1
	l-6.1,6.1c-0.4,0.4-0.4,1,0,1.4c0.2,0.2,0.4,0.3,0.7,0.3c0.2,0,0.5-0.1,0.7-0.3l6.1-6.1l6.1,6.1c0.2,0.2,0.4,0.3,0.7,0.3
	c0.3,0,0.5-0.1,0.7-0.3c0.4-0.4,0.4-1,0-1.4L19.4,18l6.1-6.1C25.9,11.5,25.9,10.9,25.5,10.5z"/>
</svg>
