<?xml version="1.0" encoding="utf-8"?>
<!-- Generator: Adobe Illustrator 23.0.0, SVG Export Plug-In . SVG Version: 6.00 Build 0)  -->
<svg version="1.1" id="Capa_1" xmlns="http://www.w3.org/2000/svg" xmlns:xlink="http://www.w3.org/1999/xlink" x="0px" y="0px"
	 width="36px" height="36px" viewBox="0 0 36 36" style="enable-background:new 0 0 36 36;" xml:space="preserve">
<g>
	<path d="M27.8,10.2h-8.9c-0.8-0.8-1.7-1.7-3.2-1.7c-2.1,0-3.8,1.7-3.8,3.8l-0.1,10.1c0,1.4-0.3,2.7-1,3.9l-3.2,6
		c-0.6,1.1-0.3,2.6,0.8,3.3C8.9,35.9,9.4,36,9.9,36c0.2,0,0.4,0,0.6-0.1c0.7-0.2,1.2-0.6,1.6-1.2l3.5-6.4l2.7,6.2
		c0.3,0.6,0.8,1.1,1.4,1.3c0.6,0.2,1.3,0.2,1.9,0c0.6-0.3,1.1-0.8,1.3-1.4c0.2-0.6,0.2-1.3,0-1.9l-4-9.1c-0.1-0.3-0.2-0.7-0.2-1
		v-1.5h9.3c0.5,0,0.8-0.4,0.8-0.8v-9C28.6,10.6,28.2,10.2,27.8,10.2z M21.6,19.2h-3.1v-3L21.6,19.2z M14.6,26.4l-4.1,7.5
		c-0.1,0.2-0.3,0.3-0.5,0.4c-0.2,0.1-0.5,0-0.6-0.1C9,34,8.9,33.5,9.1,33.1l3.2-6c0.6-1.1,0.9-2.3,1.1-3.5L14.6,26.4z M25.6,16.9
		l-0.3-0.3c-0.8-0.8-3.2-3.1-4.8-4.7h6.4v7.3h-0.9C26.4,18.5,26.2,17.6,25.6,16.9z M17.9,13.8L17.9,13.8L17.9,13.8L17.9,13.8z
		 M17.8,13.5C17.8,13.5,17.7,13.5,17.8,13.5c-0.1,0-0.1,0-0.2,0l-0.2,0.1c0,0-0.1,0,0,0l-0.1,0L17,13.9l-0.1,8.5
		c0,0.6,0.1,1.1,0.4,1.7l4,9c0.1,0.2,0.1,0.4,0,0.7c-0.1,0.2-0.2,0.4-0.5,0.5c-0.2,0.1-0.4,0.1-0.7,0c-0.2-0.1-0.4-0.2-0.5-0.5
		l-6.1-14.1c0,0,0,0,0,0l0-7.4c0-1.2,1-2.1,2.1-2.1c0.8,0,1.3,0.4,2.1,1.3c0.9,0.9,6.6,6.6,6.7,6.6c0.2,0.2,0.2,0.5,0,0.7l-0.1,0.1
		c-0.1,0.1-0.2,0.2-0.4,0.2h0c-0.1,0-0.3,0-0.3-0.1l-5.3-5.2c-0.1-0.1-0.2-0.1-0.3-0.2C17.9,13.5,17.8,13.5,17.8,13.5z M18,13.8
		L18,13.8C18,13.8,18,13.8,18,13.8L18,13.8z"/>
	<path d="M15.4,8.4c2.2,0,4-1.7,4.1-3.9H22c0.4,0,0.8-0.4,0.8-0.8c0-0.4-0.4-0.8-0.8-0.8h-2.7C18.7,1.2,17.2,0,15.4,0
		c-2.3,0-4.1,1.9-4.1,4.2S13.1,8.4,15.4,8.4z M13.2,2.8c0.5-0.8,1.3-1.2,2.2-1.2c0.9,0,1.7,0.5,2.2,1.2H13.2z M12.9,4.5h5
		c-0.1,1.3-1.2,2.3-2.5,2.3S13,5.8,12.9,4.5z"/>
</g>
</svg>
