<?xml version="1.0" encoding="utf-8"?>
<!-- Generator: Adobe Illustrator 23.0.0, SVG Export Plug-In . SVG Version: 6.00 Build 0)  -->
<svg version="1.1" id="Capa_1" xmlns="http://www.w3.org/2000/svg" xmlns:xlink="http://www.w3.org/1999/xlink" x="0px" y="0px"
	 width="36px" height="36px" viewBox="0 0 36 36" style="enable-background:new 0 0 36 36;" xml:space="preserve">
<path d="M10.2,20.4l6.8,6.8c0.2,0.2,0.6,0.4,0.9,0.4c0.3,0,0.6-0.1,0.7-0.3l6.9-6.9c0.4-0.3,0.5-0.6,0.5-0.8c0-0.3-0.1-0.7-0.3-0.9
	c-0.2-0.2-0.6-0.4-0.9-0.4c-0.3,0-0.6,0.1-0.7,0.3l-4.9,4.9V2.2c0-0.6-0.6-1.2-1.2-1.2c-0.6,0-1.2,0.6-1.2,1.2v21.4l-4.9-4.9
	c-0.2-0.2-0.5-0.3-0.9-0.3c-0.3,0-0.6,0.1-0.9,0.4c-0.2,0.2-0.3,0.5-0.3,0.8C9.8,19.9,9.9,20.2,10.2,20.4z"/>
<path d="M2.2,16.8c-0.6,0-1.2,0.6-1.2,1.2v14.6c0,1.4,1.1,2.4,2.4,2.4h29.1c1.3,0,2.4-1.1,2.4-2.4V18c0-0.6-0.6-1.2-1.2-1.2
	s-1.2,0.6-1.2,1.2v14.6H3.4V18C3.4,17.4,2.9,16.8,2.2,16.8z"/>
</svg>
