<?xml version="1.0" encoding="utf-8"?>
<!-- Generator: Adobe Illustrator 23.0.0, SVG Export Plug-In . SVG Version: 6.00 Build 0)  -->
<svg version="1.1" id="Capa_1" xmlns="http://www.w3.org/2000/svg" xmlns:xlink="http://www.w3.org/1999/xlink" x="0px" y="0px"
	 width="36px" height="36px" viewBox="0 0 36 36" style="enable-background:new 0 0 36 36;" xml:space="preserve">
<g>
	<path id="SVGID_17_" d="M27.3,33.9H8.7c-0.9,0-1.7-0.8-1.7-1.8V3.9c0-1,0.7-1.8,1.7-1.8h11.9v6c0,1.4,1,2.5,2.3,2.5H29v21.6
		C29,33.1,28.3,33.9,27.3,33.9z M27.9,8.4h-5c-0.2,0-0.3-0.2-0.3-0.4V3.1L27.9,8.4z M29.9,7.5l-6.4-6.4C22.7,0.4,21.8,0,20.9,0H8.7
		C6.6,0,5,1.7,5,3.9v28.3C5,34.3,6.6,36,8.7,36h18.7c2,0,3.7-1.7,3.7-3.9V10.3C31,9.2,30.6,8.2,29.9,7.5z"/>
	<path id="SVGID_21_" d="M25.1,14.1H10.5c-0.6,0-1,0.5-1,1.1c0,0.6,0.4,1.1,1,1.1h14.6c0.6,0,1-0.5,1-1.1
		C26.1,14.6,25.7,14.1,25.1,14.1z"/>
	<path id="SVGID_25_" d="M25.1,19.6H10.5c-0.6,0-1,0.5-1,1.1c0,0.6,0.4,1.1,1,1.1h14.6c0.6,0,1-0.5,1-1.1
		C26.1,20.1,25.7,19.6,25.1,19.6z"/>
	<path id="SVGID_29_" d="M15.4,25.3h-4.9c-0.6,0-1,0.5-1,1.1c0,0.6,0.4,1.1,1,1.1h4.9c0.6,0,1-0.5,1-1.1
		C16.4,25.8,15.9,25.3,15.4,25.3z"/>
</g>
</svg>
