<?xml version="1.0" encoding="utf-8"?>
<!-- Generator: Adobe Illustrator 23.0.0, SVG Export Plug-In . SVG Version: 6.00 Build 0)  -->
<svg version="1.1" id="Capa_3" xmlns="http://www.w3.org/2000/svg" xmlns:xlink="http://www.w3.org/1999/xlink" x="0px" y="0px"
	 width="103.7px" height="103.7px" viewBox="0 0 103.7 103.7" style="enable-background:new 0 0 103.7 103.7;" xml:space="preserve"
	>
<style type="text/css">
	.st0{clip-path:url(#SVGID_7_);}
	.st1{clip-path:url(#SVGID_8_);fill:#009A44;}
	.st2{clip-path:url(#SVGID_9_);}
	.st3{clip-path:url(#SVGID_10_);fill:#009A44;}
	.st4{clip-path:url(#SVGID_11_);}
	.st5{clip-path:url(#SVGID_12_);fill:#009A44;}
	.st6{clip-path:url(#SVGID_13_);}
	.st7{clip-path:url(#SVGID_14_);fill:#DF1995;}
	.st8{clip-path:url(#SVGID_15_);}
	.st9{clip-path:url(#SVGID_16_);fill:#DF1995;}
	.st10{clip-path:url(#SVGID_17_);}
	.st11{clip-path:url(#SVGID_18_);fill:#009A44;}
	.st12{clip-path:url(#SVGID_19_);}
	.st13{clip-path:url(#SVGID_20_);fill:#009A44;}
	.st14{clip-path:url(#SVGID_21_);}
	.st15{clip-path:url(#SVGID_22_);enable-background:new    ;}
	.st16{clip-path:url(#SVGID_23_);}
	.st17{clip-path:url(#SVGID_24_);fill:none;stroke:#009A44;stroke-width:7.0422;stroke-miterlimit:10;}
	.st18{clip-path:url(#SVGID_25_);}
	.st19{clip-path:url(#SVGID_26_);enable-background:new    ;}
	.st20{clip-path:url(#SVGID_27_);}
	.st21{clip-path:url(#SVGID_28_);fill:none;stroke:#11A14B;stroke-width:7.0422;stroke-miterlimit:10;}
</style>
<g>
	<defs>
		<path id="SVGID_45_" d="M38,59.8c-0.9,0-1.7-0.8-1.7-1.7V47.9c0-0.9,0.8-1.7,1.7-1.7c0.9,0,1.7,0.8,1.7,1.7v10.2
			C39.7,59,38.9,59.8,38,59.8z"/>
	</defs>
	<clipPath id="SVGID_7_">
		<use xlink:href="#SVGID_45_"  style="overflow:visible;"/>
	</clipPath>
	<g class="st0">
		<defs>
			<rect id="SVGID_47_" x="-967" y="-1094" width="2800" height="1678"/>
		</defs>
		<clipPath id="SVGID_8_">
			<use xlink:href="#SVGID_47_"  style="overflow:visible;"/>
		</clipPath>
		<rect x="26.3" y="36.2" class="st1" width="23.4" height="33.5"/>
	</g>
</g>
<g>
	<defs>
		<path id="SVGID_49_" d="M43,54.7H32.9c-0.9,0-1.7-0.8-1.7-1.7c0-0.9,0.8-1.7,1.7-1.7H43c0.9,0,1.7,0.8,1.7,1.7
			C44.7,53.9,44,54.7,43,54.7z"/>
	</defs>
	<clipPath id="SVGID_9_">
		<use xlink:href="#SVGID_49_"  style="overflow:visible;"/>
	</clipPath>
	<g class="st2">
		<defs>
			<rect id="SVGID_51_" x="-967" y="-1094" width="2800" height="1678"/>
		</defs>
		<clipPath id="SVGID_10_">
			<use xlink:href="#SVGID_51_"  style="overflow:visible;"/>
		</clipPath>
		<rect x="21.3" y="41.3" class="st3" width="33.5" height="23.4"/>
	</g>
</g>
<g>
	<defs>
		<path id="SVGID_53_" d="M67.7,54.7H57.6c-0.9,0-1.7-0.8-1.7-1.7c0-0.9,0.8-1.7,1.7-1.7h10.1c0.9,0,1.7,0.8,1.7,1.7
			C69.3,53.9,68.6,54.7,67.7,54.7z"/>
	</defs>
	<clipPath id="SVGID_11_">
		<use xlink:href="#SVGID_53_"  style="overflow:visible;"/>
	</clipPath>
	<g class="st4">
		<defs>
			<rect id="SVGID_55_" x="-967" y="-1094" width="2800" height="1678"/>
		</defs>
		<clipPath id="SVGID_12_">
			<use xlink:href="#SVGID_55_"  style="overflow:visible;"/>
		</clipPath>
		<rect x="45.9" y="41.3" class="st5" width="33.5" height="23.4"/>
	</g>
</g>
<g>
	<defs>
		<path id="SVGID_57_" d="M67.7,69.9H57.6c-0.9,0-1.7-0.8-1.7-1.7c0-0.9,0.8-1.7,1.7-1.7h10.1c0.9,0,1.7,0.8,1.7,1.7
			C69.3,69.2,68.6,69.9,67.7,69.9z"/>
	</defs>
	<clipPath id="SVGID_13_">
		<use xlink:href="#SVGID_57_"  style="overflow:visible;"/>
	</clipPath>
	<g class="st6">
		<defs>
			<rect id="SVGID_59_" x="-967" y="-1094" width="2800" height="1678"/>
		</defs>
		<clipPath id="SVGID_14_">
			<use xlink:href="#SVGID_59_"  style="overflow:visible;"/>
		</clipPath>
		<rect x="45.9" y="56.5" class="st7" width="33.5" height="23.4"/>
	</g>
</g>
<g>
	<defs>
		<path id="SVGID_61_" d="M67.7,80.1H57.6c-0.9,0-1.7-0.8-1.7-1.7c0-0.9,0.8-1.7,1.7-1.7h10.1c0.9,0,1.7,0.8,1.7,1.7
			C69.3,79.3,68.6,80.1,67.7,80.1z"/>
	</defs>
	<clipPath id="SVGID_15_">
		<use xlink:href="#SVGID_61_"  style="overflow:visible;"/>
	</clipPath>
	<g class="st8">
		<defs>
			<rect id="SVGID_63_" x="-967" y="-1094" width="2800" height="1678"/>
		</defs>
		<clipPath id="SVGID_16_">
			<use xlink:href="#SVGID_63_"  style="overflow:visible;"/>
		</clipPath>
		<rect x="45.9" y="66.7" class="st9" width="33.5" height="23.4"/>
	</g>
</g>
<g>
	<defs>
		<path id="SVGID_65_" d="M32.9,80.1c-0.4,0-0.9-0.2-1.2-0.5c-0.7-0.7-0.7-1.7,0-2.4L41.9,67c0.7-0.7,1.7-0.7,2.4,0
			c0.7,0.7,0.7,1.7,0,2.4L34.1,79.6C33.8,79.9,33.4,80.1,32.9,80.1z"/>
	</defs>
	<clipPath id="SVGID_17_">
		<use xlink:href="#SVGID_65_"  style="overflow:visible;"/>
	</clipPath>
	<g class="st10">
		<defs>
			<rect id="SVGID_67_" x="-967" y="-1094" width="2800" height="1678"/>
		</defs>
		<clipPath id="SVGID_18_">
			<use xlink:href="#SVGID_67_"  style="overflow:visible;"/>
		</clipPath>
		<rect x="21.3" y="56.5" class="st11" width="33.5" height="33.5"/>
	</g>
</g>
<g>
	<defs>
		<path id="SVGID_69_" d="M43,80.1c-0.4,0-0.9-0.2-1.2-0.5L31.8,69.4c-0.7-0.7-0.7-1.7,0-2.4c0.7-0.7,1.7-0.7,2.4,0l10.1,10.2
			c0.7,0.7,0.7,1.7,0,2.4C43.9,79.9,43.5,80.1,43,80.1z"/>
	</defs>
	<clipPath id="SVGID_19_">
		<use xlink:href="#SVGID_69_"  style="overflow:visible;"/>
	</clipPath>
	<g class="st12">
		<defs>
			<rect id="SVGID_71_" x="-967" y="-1094" width="2800" height="1678"/>
		</defs>
		<clipPath id="SVGID_20_">
			<use xlink:href="#SVGID_71_"  style="overflow:visible;"/>
		</clipPath>
		<rect x="21.3" y="56.5" class="st13" width="33.5" height="33.5"/>
	</g>
</g>
<g>
	<defs>
		<path id="SVGID_73_" d="M19.7,8h62.6c2.6,0,4.7,2.1,4.7,4.7v76.6c0,2.6-2.1,4.7-4.7,4.7H19.7c-2.6,0-4.7-2.1-4.7-4.7V12.7
			C15,10.1,17.1,8,19.7,8z"/>
	</defs>
	<clipPath id="SVGID_21_">
		<use xlink:href="#SVGID_73_"  style="overflow:visible;"/>
	</clipPath>
	<g class="st14">
		<defs>
			<rect id="SVGID_75_" x="-967" y="-1094" width="2800" height="1678"/>
		</defs>
		<clipPath id="SVGID_22_">
			<use xlink:href="#SVGID_75_"  style="overflow:visible;"/>
		</clipPath>
		<g class="st15">
			<g>
				<defs>
					<rect id="SVGID_5_" x="14" y="8" width="73" height="86"/>
				</defs>
				<clipPath id="SVGID_23_">
					<use xlink:href="#SVGID_5_"  style="overflow:visible;"/>
				</clipPath>
				<g class="st16">
					<defs>
						<rect id="SVGID_6_" x="15" y="8" width="72" height="86"/>
					</defs>
					<clipPath id="SVGID_24_">
						<use xlink:href="#SVGID_6_"  style="overflow:visible;"/>
					</clipPath>
					<path class="st17" d="M19.7,8h62.6c2.6,0,4.7,2.1,4.7,4.7v76.6c0,2.6-2.1,4.7-4.7,4.7H19.7c-2.6,0-4.7-2.1-4.7-4.7V12.7
						C15,10.1,17.1,8,19.7,8z"/>
				</g>
			</g>
		</g>
	</g>
</g>
<g>
	<defs>
		<path id="SVGID_1_" d="M31.3,22.3h39.4c2.6,0,4.7,2.1,4.7,4.7v7.3c0,2.6-2.1,4.7-4.7,4.7H31.3c-2.6,0-4.7-2.1-4.7-4.7V27
			C26.6,24.4,28.7,22.3,31.3,22.3z"/>
	</defs>
	<clipPath id="SVGID_25_">
		<use xlink:href="#SVGID_1_"  style="overflow:visible;"/>
	</clipPath>
	<g class="st18">
		<defs>
			<rect id="SVGID_2_" x="-967" y="-1094" width="2800" height="1678"/>
		</defs>
		<clipPath id="SVGID_26_">
			<use xlink:href="#SVGID_2_"  style="overflow:visible;"/>
		</clipPath>
		<g class="st19">
			<g>
				<defs>
					<rect id="SVGID_3_" x="26" y="22" width="50" height="18"/>
				</defs>
				<clipPath id="SVGID_27_">
					<use xlink:href="#SVGID_3_"  style="overflow:visible;"/>
				</clipPath>
				<g class="st20">
					<defs>
						<rect id="SVGID_4_" x="26" y="22" width="50" height="18"/>
					</defs>
					<clipPath id="SVGID_28_">
						<use xlink:href="#SVGID_4_"  style="overflow:visible;"/>
					</clipPath>
					<path class="st21" d="M31.3,22.3h39.4c2.6,0,4.7,2.1,4.7,4.7v7.3c0,2.6-2.1,4.7-4.7,4.7H31.3c-2.6,0-4.7-2.1-4.7-4.7V27
						C26.6,24.4,28.7,22.3,31.3,22.3z"/>
				</g>
			</g>
		</g>
	</g>
</g>
</svg>
