<?xml version="1.0" encoding="utf-8"?>
<!-- Generator: Adobe Illustrator 23.0.0, SVG Export Plug-In . SVG Version: 6.00 Build 0)  -->
<svg version="1.1" id="Capa_1" xmlns="http://www.w3.org/2000/svg" xmlns:xlink="http://www.w3.org/1999/xlink" x="0px" y="0px"
	 width="36px" height="36px" viewBox="0 0 36 36" style="enable-background:new 0 0 36 36;" xml:space="preserve">
<g>
	<defs>
		<rect id="SVGID_11_" x="-1352" y="-1249" width="2800" height="2520"/>
	</defs>
	<clipPath id="SVGID_1_">
		<use xlink:href="#SVGID_11_"  style="overflow:visible;"/>
	</clipPath>
</g>
<g>
	<defs>
		<rect id="SVGID_15_" x="-1352" y="-1249" width="2800" height="2520"/>
	</defs>
	<clipPath id="SVGID_2_">
		<use xlink:href="#SVGID_15_"  style="overflow:visible;"/>
	</clipPath>
</g>
<g>
	<path d="M18,13.6c-7.8,0-7.8,11.6,0,11.6C26,25.2,25.7,13.6,18,13.6z M18,22.9c-4.7,0-4.7-6.9,0-6.9S22.7,22.9,18,22.9z"/>
	<path d="M33.3,17.3C29.4,12,23.8,9,18,9S6.6,12,2.7,17.3c-0.9,1.2-0.9,2.9,0,4.1c3.9,5.3,9.5,8.3,15.3,8.3s11.4-3,15.3-8.3
		C34.2,20.2,34.2,18.6,33.3,17.3z M31.4,20.1c-3.5,4.8-8.3,7.4-13.4,7.4s-9.9-2.6-13.4-7.4v0c-0.3-0.4-0.3-1,0-1.4
		c3.5-4.8,8.3-7.4,13.4-7.4s9.9,2.6,13.4,7.4C31.7,19.1,31.7,19.7,31.4,20.1z"/>
</g>
</svg>
