<?xml version="1.0" encoding="utf-8"?>
<!-- Generator: Adobe Illustrator 23.0.0, SVG Export Plug-In . SVG Version: 6.00 Build 0)  -->
<svg version="1.1" id="Capa_1" xmlns="http://www.w3.org/2000/svg" xmlns:xlink="http://www.w3.org/1999/xlink" x="0px" y="0px"
	 width="36px" height="36px" viewBox="0 0 36 36" style="enable-background:new 0 0 36 36;" xml:space="preserve">
<g>
	<path d="M29.3,0.8H6.7c-2.7,0-4.9,2-4.9,4.5v25.5c0,2.5,2.2,4.5,4.9,4.5h22.6c2.7,0,4.9-2,4.9-4.5V5.3C34.2,2.8,32,0.8,29.3,0.8z
		 M31.9,5.3v25.5c0,1.3-1.2,2.3-2.6,2.3H6.7c-1.4,0-2.6-1.1-2.6-2.3V5.3c0-1.3,1.2-2.3,2.6-2.3h22.6C30.7,2.9,31.9,4,31.9,5.3z"/>
	<path d="M25.5,25.4H10.5c-0.6,0-1.1,0.5-1.1,1.1s0.5,1.1,1.1,1.1h15.1c0.6,0,1.1-0.5,1.1-1.1S26.2,25.4,25.5,25.4z"/>
	<path d="M25.5,16.9H10.5c-0.6,0-1.1,0.5-1.1,1.1s0.5,1.1,1.1,1.1h15.1c0.6,0,1.1-0.5,1.1-1.1S26.2,16.9,25.5,16.9z"/>
	<path d="M25.5,10.1H10.5c-0.6,0-1.1,0.5-1.1,1.1c0,0.6,0.5,1,1.1,1h15.1c0.6,0,1.1-0.5,1.1-1C26.7,10.6,26.2,10.1,25.5,10.1z"/>
</g>
</svg>
