<?xml version="1.0" encoding="utf-8"?>
<!-- Generator: Adobe Illustrator 23.0.0, SVG Export Plug-In . SVG Version: 6.00 Build 0)  -->
<svg version="1.1" id="Capa_1" xmlns="http://www.w3.org/2000/svg" xmlns:xlink="http://www.w3.org/1999/xlink" x="0px" y="0px"
	 viewBox="0 0 124 128" style="enable-background:new 0 0 124 128;" xml:space="preserve">
<style type="text/css">
	.st0{fill:#009A44;}
	.st1{clip-path:url(#SVGID_6_);}
	.st2{fill:#0ABA58;}
	.st3{clip-path:url(#SVGID_10_);}
	.st4{clip-path:url(#SVGID_14_);}
	.st5{clip-path:url(#SVGID_18_);}
	.st6{clip-path:url(#SVGID_22_);}
</style>
<title>Recurso 1</title>
<g>
	<g>
		<defs>
			<rect id="SVGID_1_" x="-1338" y="-376" width="2800" height="1884"/>
		</defs>
		<clipPath id="SVGID_2_">
			<use xlink:href="#SVGID_1_"  style="overflow:visible;"/>
		</clipPath>
	</g>
</g>
<g>
	<g>
		<defs>
			<rect id="SVGID_3_" x="-1338" y="-376" width="2800" height="1884"/>
		</defs>
		<clipPath id="SVGID_4_">
			<use xlink:href="#SVGID_3_"  style="overflow:visible;"/>
		</clipPath>
	</g>
</g>
<g>
	<path class="st0" d="M61.8,10.6c-2.7,0-5,2.2-5,4.9c0,0,0,0,0,0v19.6c0.4,2.7,2.9,4.7,5.6,4.3c2.2-0.3,4-2.1,4.3-4.3V15.5
		C66.7,12.8,64.5,10.6,61.8,10.6z"/>
	<g>
		<defs>
			<path id="SVGID_5_" d="M61.8,89.1c-2.7,0-5,2.1-5,4.9c0,0,0,0,0,0v19.6c0.4,2.7,2.9,4.7,5.6,4.3c2.2-0.3,4-2.1,4.3-4.3V94
				C66.7,91.3,64.5,89.1,61.8,89.1z"/>
		</defs>
		<use xlink:href="#SVGID_5_"  style="overflow:visible;fill:#90D290;"/>
		<clipPath id="SVGID_6_">
			<use xlink:href="#SVGID_5_"  style="overflow:visible;"/>
		</clipPath>
		<g class="st1">
			<g>
				<defs>
					<rect id="SVGID_7_" x="-1340.7" y="-375.4" width="2800" height="1884"/>
				</defs>
				<use xlink:href="#SVGID_7_"  style="overflow:visible;fill:#90D290;"/>
				<clipPath id="SVGID_8_">
					<use xlink:href="#SVGID_7_"  style="overflow:visible;"/>
				</clipPath>
			</g>
		</g>
	</g>
	<path class="st2" d="M44.3,40.3l-14-13.9c-1.9-1.9-5.1-1.9-7,0c-1.9,1.9-1.9,5-0.1,6.9c0,0,0,0,0.1,0.1l14,13.9
		c1.9,1.9,5.1,1.9,7,0C46.2,45.3,46.3,42.2,44.3,40.3C44.4,40.3,44.3,40.3,44.3,40.3z"/>
	<g>
		<defs>
			<path id="SVGID_9_" d="M86.3,81.9c-1.9-1.9-5.1-1.9-7,0c-1.9,1.9-1.9,5,0,6.9c0,0,0,0,0,0l14,13.9c1.9,1.9,5.1,1.9,7,0
				c1.9-1.9,1.9-5,0-6.9c0,0,0,0,0,0L86.3,81.9z"/>
		</defs>
		<use xlink:href="#SVGID_9_"  style="overflow:visible;fill:#B9DFB9;"/>
		<clipPath id="SVGID_10_">
			<use xlink:href="#SVGID_9_"  style="overflow:visible;"/>
		</clipPath>
		<g class="st3">
			<g>
				<defs>
					<rect id="SVGID_11_" x="-1340.7" y="-375.4" width="2800" height="1884"/>
				</defs>
				<use xlink:href="#SVGID_11_"  style="overflow:visible;fill:#B9DFB9;"/>
				<clipPath id="SVGID_12_">
					<use xlink:href="#SVGID_11_"  style="overflow:visible;"/>
				</clipPath>
			</g>
		</g>
	</g>
	<g>
		<defs>
			<path id="SVGID_13_" d="M37,64.6c0-2.7-2.2-4.9-4.9-4.9c0,0,0,0-0.1,0H12.3c-2.7,0-4.9,2.2-4.9,4.9s2.2,4.9,4.9,4.9h19.8
				C34.8,69.5,37,67.3,37,64.6z"/>
		</defs>
		<use xlink:href="#SVGID_13_"  style="overflow:visible;fill:#5BBF5B;"/>
		<clipPath id="SVGID_14_">
			<use xlink:href="#SVGID_13_"  style="overflow:visible;"/>
		</clipPath>
		<g class="st4">
			<g>
				<defs>
					<rect id="SVGID_15_" x="-1340.7" y="-375.4" width="2800" height="1884"/>
				</defs>
				<use xlink:href="#SVGID_15_"  style="overflow:visible;fill:#5BBF5B;"/>
				<clipPath id="SVGID_16_">
					<use xlink:href="#SVGID_15_"  style="overflow:visible;"/>
				</clipPath>
			</g>
		</g>
	</g>
	<g>
		<defs>
			<path id="SVGID_17_" d="M116.6,64.6c0-2.7-2.2-4.9-4.9-4.9c0,0,0,0-0.1,0H91.9c-2.7,0-4.9,2.2-4.9,4.9s2.2,4.9,4.9,4.9h19.8
				C114.4,69.5,116.6,67.3,116.6,64.6z"/>
		</defs>
		<use xlink:href="#SVGID_17_"  style="overflow:visible;fill:#C5EBC6;"/>
		<clipPath id="SVGID_18_">
			<use xlink:href="#SVGID_17_"  style="overflow:visible;"/>
		</clipPath>
		<g class="st5">
			<g>
				<defs>
					<rect id="SVGID_19_" x="-1261.1" y="-375.4" width="2800" height="1884"/>
				</defs>
				<use xlink:href="#SVGID_19_"  style="overflow:visible;fill:#C5EBC6;"/>
				<clipPath id="SVGID_20_">
					<use xlink:href="#SVGID_19_"  style="overflow:visible;"/>
				</clipPath>
			</g>
		</g>
	</g>
	<g>
		<defs>
			<path id="SVGID_21_" d="M44.3,81.9c-1.9-1.9-5.1-1.9-7,0l-14,13.9c-1.9,1.9-1.9,5-0.1,6.9c0,0,0,0,0.1,0.1c1.9,1.9,5.1,1.9,7,0
				l14-13.9C46.2,87,46.3,83.9,44.3,81.9C44.4,82,44.3,82,44.3,81.9z"/>
		</defs>
		<use xlink:href="#SVGID_21_"  style="overflow:visible;fill:#75C875;"/>
		<clipPath id="SVGID_22_">
			<use xlink:href="#SVGID_21_"  style="overflow:visible;"/>
		</clipPath>
		<g class="st6">
			<g>
				<defs>
					<rect id="SVGID_23_" x="-1340.7" y="-375.4" width="2800" height="1884"/>
				</defs>
				<use xlink:href="#SVGID_23_"  style="overflow:visible;fill:#75C875;"/>
				<clipPath id="SVGID_24_">
					<use xlink:href="#SVGID_23_"  style="overflow:visible;"/>
				</clipPath>
			</g>
		</g>
	</g>
</g>
</svg>
